<svg xmlns="http://www.w3.org/2000/svg" width="260.008" height="222.021" viewBox="0 0 260.008 222.021">
  <g id="Groupe_338" data-name="Groupe 338" transform="translate(-884.641 -1585.144)">
    <g id="Groupe_337" data-name="Groupe 337">
      <g id="day78-wallet" transform="translate(884.641 1401.707)">
        <path id="XMLID_69_" d="M260.008,1000h0Z" transform="translate(0 -594.542)" fill="#fff"/>
        <g id="XMLID_1_" transform="translate(42.446 186.442)" opacity="0.15">
          <path id="XMLID_57_" d="M157.5,387.9h20.645v10.062H157.5" transform="translate(-157.5 -338.149)" fill="none" stroke="#474747" stroke-linecap="round" stroke-linejoin="round" stroke-miterlimit="10" stroke-width="6"/>
          <line id="XMLID_59_" x1="20.619" transform="translate(20.645 59.813)" fill="none" stroke="#474747" stroke-linecap="round" stroke-linejoin="round" stroke-miterlimit="10" stroke-width="6"/>
          <line id="XMLID_38_" x2="7.904" transform="translate(20.645 49.751)" fill="none" stroke="#474747" stroke-linecap="round" stroke-linejoin="round" stroke-miterlimit="10" stroke-width="6"/>
          <rect id="XMLID_42_" width="20.619" height="10.062" transform="translate(10.322 59.813)" fill="none" stroke="#474747" stroke-linecap="round" stroke-linejoin="round" stroke-miterlimit="10" stroke-width="6"/>
          <path id="XMLID_52_" d="M169.9,465.5H187.32v10.062h-6.682" transform="translate(-166.676 -395.573)" fill="none" stroke="#474747" stroke-linecap="round" stroke-linejoin="round" stroke-miterlimit="10" stroke-width="6"/>
          <rect id="XMLID_54_" width="20.619" height="10.062" transform="translate(20.645 69.927)" fill="none" stroke="#474747" stroke-linecap="round" stroke-linejoin="round" stroke-miterlimit="10" stroke-width="6"/>
          <path id="XMLID_81_" d="M580.5,528h20.645v10.036H580.5" transform="translate(-470.517 -441.822)" fill="none" stroke="#474747" stroke-linecap="round" stroke-linejoin="round" stroke-miterlimit="10" stroke-width="6"/>
          <line id="XMLID_80_" x1="20.619" transform="translate(130.628 96.214)" fill="none" stroke="#474747" stroke-linecap="round" stroke-linejoin="round" stroke-miterlimit="10" stroke-width="6"/>
          <line id="XMLID_79_" x2="7.904" transform="translate(130.628 86.178)" fill="none" stroke="#474747" stroke-linecap="round" stroke-linejoin="round" stroke-miterlimit="10" stroke-width="6"/>
          <rect id="XMLID_78_" width="20.619" height="10.062" transform="translate(120.306 96.214)" fill="none" stroke="#474747" stroke-linecap="round" stroke-linejoin="round" stroke-miterlimit="10" stroke-width="6"/>
          <path id="XMLID_77_" d="M592.9,605.5h17.42v10.062h-6.682" transform="translate(-479.693 -499.172)" fill="none" stroke="#474747" stroke-linecap="round" stroke-linejoin="round" stroke-miterlimit="10" stroke-width="6"/>
          <path id="XMLID_76_" d="M673.186,615.562H659.9V605.5h17.187" transform="translate(-529.272 -499.172)" fill="none" stroke="#474747" stroke-linecap="round" stroke-linejoin="round" stroke-miterlimit="10" stroke-width="6"/>
          <rect id="XMLID_25_" width="32.007" height="25.949" transform="translate(42.719 12.076)" fill="none" stroke="#474747" stroke-linecap="round" stroke-linejoin="round" stroke-miterlimit="10" stroke-width="6"/>
          <path id="XMLID_62_" d="M338.8,295.5l5.85-8.5,6.084,7.514" transform="translate(-291.661 -263.484)" fill="none" stroke="#474747" stroke-linecap="round" stroke-linejoin="round" stroke-miterlimit="10" stroke-width="6"/>
          <path id="XMLID_64_" d="M376.1,282.73l8.19-7.93,5.8,11.674" transform="translate(-319.262 -254.456)" fill="none" stroke="#474747" stroke-linecap="round" stroke-linejoin="round" stroke-miterlimit="10" stroke-width="6"/>
          <path id="XMLID_63_" d="M367.9,289.106a3.075,3.075,0,0,1,5.564-.6" transform="translate(-313.194 -263.484)" fill="none" stroke="#474747" stroke-linecap="round" stroke-linejoin="round" stroke-miterlimit="10" stroke-width="6"/>
          <path id="XMLID_24_" d="M626.769,392.884H581.242a3.029,3.029,0,0,1-3.042-3.042h0a3.029,3.029,0,0,1,3.042-3.042h45.527a3.029,3.029,0,0,1,3.042,3.042h0A3.029,3.029,0,0,1,626.769,392.884Z" transform="translate(-468.815 -337.335)" fill="none" stroke="#474747" stroke-linecap="round" stroke-linejoin="round" stroke-miterlimit="10" stroke-width="6"/>
          <path id="XMLID_23_" d="M658.995,338.33H645.656L642.9,321.3h18.877Z" transform="translate(-516.692 -288.866)" fill="none" stroke="#474747" stroke-linecap="round" stroke-linejoin="round" stroke-miterlimit="10" stroke-width="6"/>
          <rect id="XMLID_46_" width="23.999" height="4.94" transform="translate(123.686 27.494)" fill="none" stroke="#474747" stroke-linecap="round" stroke-linejoin="round" stroke-miterlimit="10" stroke-width="6"/>
          <g id="XMLID_68_" transform="translate(131.446 8.748)">
            <path id="XMLID_83_" d="M670.34,248.947h-4.914c-1.352-4.706-2.522-9.646-2.366-14.482A5.125,5.125,0,0,1,667.9,230.2h0a5.125,5.125,0,0,1,4.836,4.264C672.836,239.3,671.666,244.24,670.34,248.947Z" transform="translate(-663.046 -230.2)" fill="none" stroke="#474747" stroke-linecap="round" stroke-linejoin="round" stroke-miterlimit="10" stroke-width="6"/>
          </g>
          <path id="XMLID_71_" d="M700.7,225.513l3.406-5.642a2.044,2.044,0,0,1,3.094-.494h0a2.03,2.03,0,0,1-.052,3.12l-6.4,5.252" transform="translate(-559.464 -213.073)" fill="none" stroke="#474747" stroke-linecap="round" stroke-linejoin="round" stroke-miterlimit="10" stroke-width="6"/>
          <path id="XMLID_75_" d="M709.22,203.3l-1.612-5.044a1.291,1.291,0,0,1,1.066-1.69h0a1.334,1.334,0,0,1,1.508,1.326l-.13,4.082" transform="translate(-564.526 -196.556)" fill="none" stroke="#474747" stroke-linecap="round" stroke-linejoin="round" stroke-miterlimit="10" stroke-width="6"/>
        </g>
        <g id="XMLID_20_" transform="translate(107.951 216.71)">
          <rect id="XMLID_7_" width="78.29" height="37.78" transform="translate(68.266 16.555) rotate(115.989)" fill="#77ba85"/>
          <rect id="XMLID_17_" width="78.29" height="37.78" transform="translate(68.266 16.555) rotate(115.989)" fill="none" stroke="#474747" stroke-linecap="round" stroke-linejoin="round" stroke-miterlimit="10" stroke-width="1"/>
          <path id="XMLID_16_" d="M480.737,354.8l-10.868-5.3a8.511,8.511,0,0,1-11.388,3.926L431.7,408.34l26.183,12.766,26.781-54.914A8.489,8.489,0,0,1,480.737,354.8Z" transform="translate(-425.911 -340.002)" fill="#f6f9ea"/>
          <path id="XMLID_12_" d="M480.737,354.8l-10.868-5.3a8.511,8.511,0,0,1-11.388,3.926L431.7,408.34l26.183,12.766,26.781-54.914A8.489,8.489,0,0,1,480.737,354.8Z" transform="translate(-425.911 -340.002)" fill="none" stroke="#474747" stroke-linecap="round" stroke-linejoin="round" stroke-miterlimit="10" stroke-width="1"/>
          <rect id="XMLID_10_" width="29.121" height="69.631" transform="translate(36.305 5.776) rotate(25.989)" fill="none" stroke="#474747" stroke-linecap="round" stroke-linejoin="round" stroke-miterlimit="10" stroke-width="1"/>
          <circle id="XMLID_19_" cx="8.918" cy="8.918" r="8.918" transform="translate(27.812 29.051)" fill="#77ba85"/>
          <circle id="XMLID_13_" cx="8.918" cy="8.918" r="8.918" transform="translate(27.812 29.051)" fill="none" stroke="#474747" stroke-linecap="round" stroke-linejoin="round" stroke-miterlimit="10" stroke-width="1"/>
        </g>
        <g id="XMLID_22_" transform="translate(115.755 238.275)">
          <rect id="XMLID_33_" width="78.286" height="37.778" transform="matrix(-0.773, 0.634, -0.634, -0.773, 84.512, 29.215)" fill="#97cd78"/>
          <rect id="XMLID_32_" width="78.286" height="37.778" transform="matrix(-0.773, 0.634, -0.634, -0.773, 84.512, 29.215)" fill="none" stroke="#474747" stroke-linecap="round" stroke-linejoin="round" stroke-miterlimit="10" stroke-width="1"/>
          <path id="XMLID_31_" d="M535.6,411.73l-7.67-9.334a8.509,8.509,0,0,1-11.986-1.2L468.7,439.941l18.461,22.517L534.4,423.717A8.512,8.512,0,0,1,535.6,411.73Z" transform="translate(-462.59 -389.71)" fill="#f6f9ea"/>
          <path id="XMLID_30_" d="M535.6,411.73l-7.67-9.334a8.509,8.509,0,0,1-11.986-1.2L468.7,439.941l18.461,22.517L534.4,423.717A8.512,8.512,0,0,1,535.6,411.73Z" transform="translate(-462.59 -389.71)" fill="none" stroke="#474747" stroke-linecap="round" stroke-linejoin="round" stroke-miterlimit="10" stroke-width="1"/>
          <rect id="XMLID_29_" width="29.12" height="69.628" transform="matrix(0.634, 0.773, -0.773, 0.634, 59.932, 6.101)" fill="none" stroke="#474747" stroke-linecap="round" stroke-linejoin="round" stroke-miterlimit="10" stroke-width="1"/>
          <circle id="XMLID_28_" cx="8.918" cy="8.918" r="8.918" transform="translate(37.987 26.623)" fill="#97cd78"/>
          <circle id="XMLID_27_" cx="8.918" cy="8.918" r="8.918" transform="translate(37.987 26.623)" fill="none" stroke="#474747" stroke-linecap="round" stroke-linejoin="round" stroke-miterlimit="10" stroke-width="1"/>
          <path id="XMLID_48_" d="M493.093,423.364a18.215,18.215,0,0,0-4.576-12.064L445.2,446.817l23.973,29.225,23.947-19.631V423.364Z" transform="translate(-445.2 -397.183)" fill="#474747" stroke="#474747" stroke-linecap="round" stroke-linejoin="round" stroke-miterlimit="10" stroke-width="6" opacity="0.32"/>
        </g>
        <line id="XMLID_9_" x2="172.125" transform="translate(45.436 330.003)" fill="none" stroke="#474747" stroke-linecap="round" stroke-linejoin="round" stroke-miterlimit="10" stroke-width="6" opacity="0.15"/>
        <g id="Groupe_288" data-name="Groupe 288" transform="translate(76.741 231.59)">
          <path id="XMLID_15_" d="M359.6,485.263H305a15.613,15.613,0,0,1-15.6-15.6V408.3A15.613,15.613,0,0,1,305,392.7h54.6a15.613,15.613,0,0,1,15.6,15.6v61.362A15.58,15.58,0,0,1,359.6,485.263Z" transform="translate(-289.4 -386.85)" fill="#f58870"/>
          <path id="XMLID_36_" d="M359.6,485.263H305a15.613,15.613,0,0,1-15.6-15.6V408.3A15.613,15.613,0,0,1,305,392.7h54.6a15.613,15.613,0,0,1,15.6,15.6v61.362A15.58,15.58,0,0,1,359.6,485.263Z" transform="translate(-289.4 -386.85)" fill="#f58870"/>
          <path id="XMLID_43_" d="M359.6,692.2H305a15.613,15.613,0,0,1-15.6-15.6v3.146a15.613,15.613,0,0,0,15.6,15.6h54.6a15.613,15.613,0,0,0,15.6-15.6V676.6A15.6,15.6,0,0,1,359.6,692.2Z" transform="translate(-289.4 -596.934)" fill="#dd7868"/>
          <path id="XMLID_40_" d="M359.6,392.7H305c-8.606,0-15.6,6.422-15.6,14.326v3.354c0-7.9,6.994-14.326,15.6-14.326h54.6c8.606,0,15.6,6.422,15.6,14.326v-3.354C375.2,399.122,368.234,392.7,359.6,392.7Z" transform="translate(-289.4 -386.85)" fill="#ffa399"/>
          <path id="XMLID_34_" d="M436.121,430.791H422.08a4.694,4.694,0,0,1-4.68-4.68V397.38a4.694,4.694,0,0,1,4.68-4.68H440.8v33.411A4.677,4.677,0,0,1,436.121,430.791Z" transform="translate(-384.119 -386.85)" fill="#474747" stroke="#474747" stroke-linecap="round" stroke-linejoin="round" stroke-miterlimit="10" stroke-width="6" opacity="0.3"/>
          <path id="XMLID_2_" d="M359.6,485.263H305a15.613,15.613,0,0,1-15.6-15.6V408.3A15.613,15.613,0,0,1,305,392.7h54.6a15.613,15.613,0,0,1,15.6,15.6v61.362A15.58,15.58,0,0,1,359.6,485.263Z" transform="translate(-289.4 -386.85)" fill="none" stroke="#474747" stroke-linecap="round" stroke-linejoin="round" stroke-miterlimit="10" stroke-width="1"/>
          <g id="XMLID_5_" transform="translate(5.72 11.96)" opacity="0.46">
            <path id="Tracé_115" data-name="Tracé 115" d="M311.4,486.662V426.08a9.876,9.876,0,0,1,9.88-9.88h54.6a9.876,9.876,0,0,1,9.88,9.88v60.556a9.876,9.876,0,0,1-9.88,9.88h-54.6A9.837,9.837,0,0,1,311.4,486.662Z" transform="translate(-311.4 -416.2)" fill="none" stroke="#474747" stroke-linecap="round" stroke-linejoin="round" stroke-width="1" stroke-dasharray="13.958 9.97"/>
          </g>
          <path id="XMLID_18_" d="M428.121,411.281H414.08a4.694,4.694,0,0,1-4.68-4.68V374.88a4.694,4.694,0,0,1,4.68-4.68h14.04a4.694,4.694,0,0,1,4.68,4.68V406.6A4.677,4.677,0,0,1,428.121,411.281Z" transform="translate(-378.199 -370.2)" fill="#f79765"/>
          <path id="XMLID_45_" d="M428.121,506.58H414.08a4.694,4.694,0,0,1-4.68-4.68v2.158a4.694,4.694,0,0,0,4.68,4.68h14.04a4.694,4.694,0,0,0,4.68-4.68V501.9A4.677,4.677,0,0,1,428.121,506.58Z" transform="translate(-378.199 -467.657)" fill="#e27444"/>
          <path id="XMLID_44_" d="M428.121,370.2H414.08a4.694,4.694,0,0,0-4.68,4.68v1.768a4.694,4.694,0,0,1,4.68-4.68h14.04a4.694,4.694,0,0,1,4.68,4.68V374.88A4.677,4.677,0,0,0,428.121,370.2Z" transform="translate(-378.199 -370.2)" fill="#ffb797"/>
          <path id="XMLID_4_" d="M428.121,411.281H414.08a4.694,4.694,0,0,1-4.68-4.68V374.88a4.694,4.694,0,0,1,4.68-4.68h14.04a4.694,4.694,0,0,1,4.68,4.68V406.6A4.677,4.677,0,0,1,428.121,411.281Z" transform="translate(-378.199 -370.2)" fill="none" stroke="#474747" stroke-linecap="round" stroke-linejoin="round" stroke-miterlimit="10" stroke-width="1"/>
          <circle id="XMLID_35_" cx="6.032" cy="6.032" r="6.032" transform="translate(37.649 22.309)" fill="#474747" stroke="#474747" stroke-linecap="round" stroke-linejoin="round" stroke-miterlimit="10" stroke-width="6" opacity="0.3"/>
          <g id="XMLID_11_" transform="translate(34.321 3.12)" opacity="0.46">
            <path id="Tracé_116" data-name="Tracé 116" d="M422.96,417.041a1.565,1.565,0,0,1-1.56-1.56V383.76a1.565,1.565,0,0,1,1.56-1.56H437a1.565,1.565,0,0,1,1.56,1.56v31.721a1.565,1.565,0,0,1-1.56,1.56Z" transform="translate(-421.4 -382.2)" fill="none" stroke="#474747" stroke-linecap="round" stroke-linejoin="round" stroke-width="1" stroke-dasharray="9.839 11.807"/>
          </g>
          <circle id="XMLID_21_" cx="6.032" cy="6.032" r="6.032" transform="translate(36.869 20.749)" fill="#8f6d5d"/>
          <circle id="XMLID_6_" cx="6.032" cy="6.032" r="6.032" transform="translate(36.869 20.749)" fill="none" stroke="#474747" stroke-linecap="round" stroke-linejoin="round" stroke-miterlimit="10" stroke-width="6"/>
          <g id="XMLID_37_" transform="translate(39.237 22.24)" opacity="0.6">
            <path id="Tracé_117" data-name="Tracé 117" d="M446.52,457.182c.208.988-.962,1.612-2.678,1.976-1.742.338-3.3.39-3.51-.442-.208-.806.962-2.34,2.678-2.834C444.752,455.388,446.312,456.22,446.52,457.182Z" transform="translate(-440.308 -455.735)" fill="#fffcee"/>
          </g>
        </g>
        <g id="XMLID_65_" transform="translate(184.865 335.048)">
          <path id="XMLID_41_" d="M731.1,734.27H712.9a1.909,1.909,0,0,1-1.9-1.9V731.1a1.909,1.909,0,0,1,1.9-1.9h18.2a1.909,1.909,0,0,1,1.9,1.9v1.274A1.892,1.892,0,0,1,731.1,734.27Z" transform="translate(-711 -729.2)" fill="#fdb740"/>
          <path id="XMLID_72_" d="M731.1,731.3H712.9a1.909,1.909,0,0,0-1.9,1.9v.728a1.909,1.909,0,0,1,1.9-1.9h18.2a1.909,1.909,0,0,1,1.9,1.9V733.2A1.909,1.909,0,0,0,731.1,731.3Z" transform="translate(-711 -730.754)" fill="#fff3c0" opacity="0.88"/>
          <path id="XMLID_70_" d="M731.1,739.026H712.9a1.909,1.909,0,0,1-1.9-1.9V736.4a1.909,1.909,0,0,0,1.9,1.9h18.2a1.909,1.909,0,0,0,1.9-1.9v.728A1.892,1.892,0,0,1,731.1,739.026Z" transform="translate(-711 -734.528)" fill="#f29e25"/>
          <path id="XMLID_39_" d="M731.1,734.27H712.9a1.909,1.909,0,0,1-1.9-1.9V731.1a1.909,1.909,0,0,1,1.9-1.9h18.2a1.909,1.909,0,0,1,1.9,1.9v1.274A1.892,1.892,0,0,1,731.1,734.27Z" transform="translate(-711 -729.2)" fill="none" stroke="#474747" stroke-linecap="round" stroke-linejoin="round" stroke-miterlimit="10" stroke-width="1"/>
        </g>
        <g id="XMLID_73_" transform="translate(187.907 330.004)">
          <path id="XMLID_90_" d="M742.8,714.87H724.6a1.909,1.909,0,0,1-1.9-1.9V711.7a1.909,1.909,0,0,1,1.9-1.9h18.2a1.909,1.909,0,0,1,1.9,1.9v1.274A1.909,1.909,0,0,1,742.8,714.87Z" transform="translate(-722.7 -709.8)" fill="#fdb740"/>
          <path id="XMLID_89_" d="M742.8,711.9H724.6a1.909,1.909,0,0,0-1.9,1.9v.728a1.909,1.909,0,0,1,1.9-1.9h18.2a1.909,1.909,0,0,1,1.9,1.9V713.8A1.926,1.926,0,0,0,742.8,711.9Z" transform="translate(-722.7 -711.354)" fill="#fff3c0" opacity="0.88"/>
          <path id="XMLID_88_" d="M742.8,719.626H724.6a1.909,1.909,0,0,1-1.9-1.9V717a1.909,1.909,0,0,0,1.9,1.9h18.2a1.909,1.909,0,0,0,1.9-1.9v.728A1.909,1.909,0,0,1,742.8,719.626Z" transform="translate(-722.7 -715.128)" fill="#f29e25"/>
          <path id="XMLID_74_" d="M742.8,714.87H724.6a1.909,1.909,0,0,1-1.9-1.9V711.7a1.909,1.909,0,0,1,1.9-1.9h18.2a1.909,1.909,0,0,1,1.9,1.9v1.274A1.909,1.909,0,0,1,742.8,714.87Z" transform="translate(-722.7 -709.8)" fill="none" stroke="#474747" stroke-linecap="round" stroke-linejoin="round" stroke-miterlimit="10" stroke-width="1"/>
        </g>
        <g id="XMLID_47_" transform="translate(186.36 314.845)">
          <path id="XMLID_56_" d="M731.1,695.47H712.9a1.909,1.909,0,0,1-1.9-1.9V692.3a1.909,1.909,0,0,1,1.9-1.9h18.2a1.909,1.909,0,0,1,1.9,1.9v1.274A1.892,1.892,0,0,1,731.1,695.47Z" transform="translate(-711 -690.4)" fill="#fdb740"/>
          <path id="XMLID_53_" d="M731.1,692.6H712.9a1.909,1.909,0,0,0-1.9,1.9v.728a1.909,1.909,0,0,1,1.9-1.9h18.2a1.909,1.909,0,0,1,1.9,1.9V694.5A1.892,1.892,0,0,0,731.1,692.6Z" transform="translate(-711 -692.028)" fill="#fff3c0" opacity="0.88"/>
          <path id="XMLID_50_" d="M731.1,700.326H712.9a1.909,1.909,0,0,1-1.9-1.9V697.7a1.909,1.909,0,0,0,1.9,1.9h18.2a1.909,1.909,0,0,0,1.9-1.9v.728A1.909,1.909,0,0,1,731.1,700.326Z" transform="translate(-711 -695.802)" fill="#f29e25"/>
          <path id="XMLID_49_" d="M731.1,695.47H712.9a1.909,1.909,0,0,1-1.9-1.9V692.3a1.909,1.909,0,0,1,1.9-1.9h18.2a1.909,1.909,0,0,1,1.9,1.9v1.274A1.892,1.892,0,0,1,731.1,695.47Z" transform="translate(-711 -690.4)" fill="none" stroke="#474747" stroke-linecap="round" stroke-linejoin="round" stroke-miterlimit="10" stroke-width="1"/>
        </g>
        <g id="XMLID_58_" transform="translate(167.759 322.18)">
          <path id="XMLID_67_" d="M661.821,683.762l-12.428,13.286a1.891,1.891,0,0,1-2.678.078l-.91-.858a1.891,1.891,0,0,1-.078-2.678L658.155,680.3a1.891,1.891,0,0,1,2.678-.078l.91.858A1.94,1.94,0,0,1,661.821,683.762Z" transform="translate(-645.208 -679.708)" fill="#fdb740"/>
          <path id="XMLID_66_" d="M659.583,681.7l-12.428,13.286a1.916,1.916,0,0,0,.078,2.678l.546.494a1.891,1.891,0,0,1-.078-2.678L660.129,682.2a1.891,1.891,0,0,1,2.678-.078l-.546-.494A1.891,1.891,0,0,0,659.583,681.7Z" transform="translate(-646.273 -680.744)" fill="#fff3c0" opacity="0.88"/>
          <path id="XMLID_61_" d="M662.953,684.772l-12.428,13.286a1.891,1.891,0,0,1-2.678.078l-.546-.494a1.916,1.916,0,0,0,2.678-.078l12.428-13.286a1.916,1.916,0,0,0-.078-2.678l.546.494A1.941,1.941,0,0,1,662.953,684.772Z" transform="translate(-646.756 -681.108)" fill="#f29e25"/>
          <path id="XMLID_60_" d="M661.821,683.762l-12.428,13.286a1.891,1.891,0,0,1-2.678.078l-.91-.858a1.891,1.891,0,0,1-.078-2.678L658.155,680.3a1.891,1.891,0,0,1,2.678-.078l.91.858A1.94,1.94,0,0,1,661.821,683.762Z" transform="translate(-645.208 -679.708)" fill="none" stroke="#474747" stroke-linecap="round" stroke-linejoin="round" stroke-miterlimit="10" stroke-width="1"/>
        </g>
      </g>
    </g>
  </g>
</svg>
