<svg xmlns="http://www.w3.org/2000/svg" width="314" height="242.582" viewBox="0 0 314 242.582">
  <g id="day77-pocket-knief" transform="translate(0 -234)">
    <path id="XMLID_2_" d="M314,1000h0Z" transform="translate(0 -523.418)" fill="#fff"/>
    <g id="XMLID_3_" transform="translate(46.284 237)" opacity="0.15">
      <path id="XMLID_10_" d="M608.709,237V380.467c0,9.514-3.894,17.239-8.729,17.239H523.929c-4.8,0-8.729-7.724-8.729-17.239V267.772" transform="translate(-399.711 -237)" fill="none" stroke="#474747" stroke-linecap="round" stroke-linejoin="round" stroke-miterlimit="10" stroke-width="6"/>
      <line id="XMLID_9_" x2="207.868" transform="translate(17.458 160.674)" fill="none" stroke="#474747" stroke-linecap="round" stroke-linejoin="round" stroke-miterlimit="10" stroke-width="6"/>
      <line id="XMLID_18_" x2="93.509" transform="translate(115.489 68.138)" fill="none" stroke="#474747" stroke-linecap="round" stroke-linejoin="round" stroke-miterlimit="10" stroke-width="6"/>
      <line id="XMLID_22_" x2="93.509" transform="translate(115.489 134.989)" fill="none" stroke="#474747" stroke-linecap="round" stroke-linejoin="round" stroke-miterlimit="10" stroke-width="6"/>
      <path id="XMLID_17_" d="M758.7,531.292h-6.374a3.431,3.431,0,0,1-3.423-3.423V478.823a3.431,3.431,0,0,1,3.423-3.423H758.7a3.431,3.431,0,0,1,3.423,3.423v49.047A3.431,3.431,0,0,1,758.7,531.292Z" transform="translate(-560.029 -400.542)" fill="none" stroke="#474747" stroke-linecap="round" stroke-linejoin="round" stroke-miterlimit="10" stroke-width="6"/>
      <path id="XMLID_25_" d="M699.6,531.292h-6.374a3.431,3.431,0,0,1-3.423-3.423V478.823a3.431,3.431,0,0,1,3.423-3.423H699.6a3.431,3.431,0,0,1,3.423,3.423v49.047A3.411,3.411,0,0,1,699.6,531.292Z" transform="translate(-519.486 -400.542)" fill="none" stroke="#474747" stroke-linecap="round" stroke-linejoin="round" stroke-miterlimit="10" stroke-width="6"/>
      <path id="XMLID_60_" d="M758.7,318.292h-6.374a3.431,3.431,0,0,1-3.423-3.423V265.823a3.431,3.431,0,0,1,3.423-3.423H758.7a3.431,3.431,0,0,1,3.423,3.423v49.047A3.431,3.431,0,0,1,758.7,318.292Z" transform="translate(-560.029 -254.424)" fill="none" stroke="#474747" stroke-linecap="round" stroke-linejoin="round" stroke-miterlimit="10" stroke-width="6"/>
      <path id="XMLID_58_" d="M611.892,401.623V408a3.431,3.431,0,0,1-3.423,3.423H559.423A3.431,3.431,0,0,1,556,408v-6.374a3.431,3.431,0,0,1,3.423-3.423h49.047A3.431,3.431,0,0,1,611.892,401.623Z" transform="translate(-427.7 -347.583)" fill="none" stroke="#474747" stroke-linecap="round" stroke-linejoin="round" stroke-miterlimit="10" stroke-width="6"/>
      <path id="XMLID_61_" d="M618.546,354.823V359a3.431,3.431,0,0,1-3.423,3.423h-46A3.431,3.431,0,0,1,565.7,359v-4.176a3.431,3.431,0,0,1,3.423-3.423h46A3.431,3.431,0,0,1,618.546,354.823Z" transform="translate(-434.354 -315.478)" fill="none" stroke="#474747" stroke-linecap="round" stroke-linejoin="round" stroke-miterlimit="10" stroke-width="6"/>
      <path id="XMLID_34_" d="M600.33,553.552,596,551.731a2.369,2.369,0,0,1-1.287-3.077L610.566,510.6a2.369,2.369,0,0,1,3.077-1.287l4.333,1.821a2.369,2.369,0,0,1,1.287,3.077l-15.857,38.057A2.343,2.343,0,0,1,600.33,553.552Z" transform="translate(-454.132 -423.682)" fill="none" stroke="#474747" stroke-linecap="round" stroke-linejoin="round" stroke-miterlimit="10" stroke-width="6"/>
      <path id="XMLID_57_" d="M147.4,460.7h24.9v12.152H147.4" transform="translate(-147.4 -390.458)" fill="none" stroke="#474747" stroke-linecap="round" stroke-linejoin="round" stroke-miterlimit="10" stroke-width="6"/>
      <line id="XMLID_59_" x1="24.932" transform="translate(24.9 82.394)" fill="none" stroke="#474747" stroke-linecap="round" stroke-linejoin="round" stroke-miterlimit="10" stroke-width="6"/>
      <line id="XMLID_38_" x2="9.546" transform="translate(24.9 70.242)" fill="none" stroke="#474747" stroke-linecap="round" stroke-linejoin="round" stroke-miterlimit="10" stroke-width="6"/>
      <rect id="XMLID_42_" width="24.9" height="12.152" transform="translate(12.434 82.394)" fill="none" stroke="#474747" stroke-linecap="round" stroke-linejoin="round" stroke-miterlimit="10" stroke-width="6"/>
      <path id="XMLID_52_" d="M159.7,538.3h21.038v12.12h-8.07" transform="translate(-155.838 -443.692)" fill="none" stroke="#474747" stroke-linecap="round" stroke-linejoin="round" stroke-miterlimit="10" stroke-width="6"/>
      <rect id="XMLID_54_" width="24.9" height="12.152" transform="translate(24.9 94.608)" fill="none" stroke="#474747" stroke-linecap="round" stroke-linejoin="round" stroke-miterlimit="10" stroke-width="6"/>
      <rect id="XMLID_23_" width="38.653" height="31.337" transform="translate(51.559 24.743)" fill="none" stroke="#474747" stroke-linecap="round" stroke-linejoin="round" stroke-miterlimit="10" stroke-width="6"/>
      <path id="XMLID_62_" d="M328.6,370.068l7.1-10.268,7.316,9.075" transform="translate(-271.703 -321.241)" fill="none" stroke="#474747" stroke-linecap="round" stroke-linejoin="round" stroke-miterlimit="10" stroke-width="6"/>
      <path id="XMLID_64_" d="M365.9,357.108l9.891-9.608,7.034,14.13" transform="translate(-297.291 -312.803)" fill="none" stroke="#474747" stroke-linecap="round" stroke-linejoin="round" stroke-miterlimit="10" stroke-width="6"/>
      <path id="XMLID_63_" d="M357.7,362.343a3.714,3.714,0,0,1,6.72-.722" transform="translate(-291.666 -321.241)" fill="none" stroke="#474747" stroke-linecap="round" stroke-linejoin="round" stroke-miterlimit="10" stroke-width="6"/>
    </g>
    <g id="Groupe_334" data-name="Groupe 334" transform="translate(85.753 276.25)">
      <path id="XMLID_16_" d="M459.3,560.273l1.382-2.826,3.014.848,1.382-2.826,3.046.848,1.382-2.826,3.046.848,1.382-2.826,3.046.848,1.382-2.826,3.046.848,1.382-2.826,3.046.848,1.382-2.826,3.046.848,1.382-2.826,3.046.848,1.382-2.826,3.046.848,1.382-2.826,3.046.848,1.382-2.826-1.821-2.449a7.965,7.965,0,0,0-9.671-2.543L453.3,550.759Z" transform="translate(-396.717 -478.602)" fill="#d2dde1"/>
      <path id="XMLID_5_" d="M459.3,560.273l1.382-2.826,3.014.848,1.382-2.826,3.046.848,1.382-2.826,3.046.848,1.382-2.826,3.046.848,1.382-2.826,3.046.848,1.382-2.826,3.046.848,1.382-2.826,3.046.848,1.382-2.826,3.046.848,1.382-2.826,3.046.848,1.382-2.826,3.046.848,1.382-2.826-1.821-2.449a7.965,7.965,0,0,0-9.671-2.543L453.3,550.759Z" transform="translate(-396.717 -478.602)" fill="none" stroke="#474747" stroke-linecap="round" stroke-linejoin="round" stroke-miterlimit="10" stroke-width="1"/>
      <path id="XMLID_11_" d="M316.055,454.6l-23.456,4.71L273.1,362h0a38.081,38.081,0,0,1,26.816,27.13Z" transform="translate(-273.1 -362)" fill="#baced3"/>
      <path id="XMLID_13_" d="M396.9,468.1c-3.517,3.328-6.563,1.287-6.5-1.507.126-4.49,2.481-9.2,4.993-12.78,1.476-2.135,5.275-5.966,7.379-4.3l5.15-22.671L399.7,416.1l-1.507,2.575a169.189,169.189,0,0,0-9.608,19.248,156.2,156.2,0,0,0-7,20.5L373.1,490.078l14.821,4.773s4.9-5.244,6.343-8.509a110.991,110.991,0,0,0,5.872-17.05Z" transform="translate(-341.7 -399.113)" fill="#d2dde1"/>
      <path id="XMLID_7_" d="M396.9,468.1c-3.517,3.328-6.563,1.287-6.5-1.507.126-4.49,2.481-9.2,4.993-12.78,1.476-2.135,5.055-5.118,7.379-4.3l5.15-22.671L399.7,416.1l-1.507,2.575a169.189,169.189,0,0,0-9.608,19.248,156.2,156.2,0,0,0-7,20.5L373.1,490.078l14.821,4.773s4.9-5.244,6.343-8.509a110.991,110.991,0,0,0,5.872-17.05Z" transform="translate(-341.7 -399.113)" fill="none" stroke="#474747" stroke-linecap="round" stroke-linejoin="round" stroke-miterlimit="10" stroke-width="1"/>
      <path id="XMLID_12_" d="M294.4,370l20.63,93.227,15.606-3.14-16.14-65.5A38.011,38.011,0,0,0,294.4,370Z" transform="translate(-287.712 -367.488)" fill="#e7eff1"/>
      <path id="XMLID_4_" d="M316.055,454.6l-23.456,4.71L273.1,362h0a38.081,38.081,0,0,1,26.816,27.13Z" transform="translate(-273.1 -362)" fill="none" stroke="#474747" stroke-linecap="round" stroke-linejoin="round" stroke-miterlimit="10" stroke-width="1"/>
      <path id="XMLID_15_" d="M421.173,504.457l4.49-.157a1.4,1.4,0,0,0,1.413-1.664l-.628-4.459,4.49-.157a1.4,1.4,0,0,0,1.413-1.664l-.628-4.459,4.49-.157a1.4,1.4,0,0,0,1.413-1.664L437,485.617l4.49-.157A1.4,1.4,0,0,0,442.9,483.8l-.628-4.459,4.49-.157a1.4,1.4,0,0,0,1.413-1.664l-.628-4.459,4.9-.471a1.454,1.454,0,0,0,1.162-2.167L449.4,459.9l-1.13,8.415-4.333.157a1.519,1.519,0,0,0-1.539,1.821l.6,4.3-4.333.157a1.519,1.519,0,0,0-1.539,1.821l.6,4.3-4.333.157a1.519,1.519,0,0,0-1.539,1.821l.6,4.3-4.333.157a1.519,1.519,0,0,0-1.539,1.821l.6,4.3-4.333.157a1.519,1.519,0,0,0-1.539,1.821l.6,4.3-6.123.22-5.872,7,7.348,6.154Z" transform="translate(-366.945 -429.159)" fill="#bcc6c9"/>
      <path id="XMLID_6_" d="M421.173,504.457l4.49-.157a1.4,1.4,0,0,0,1.413-1.664l-.628-4.459,4.49-.157a1.4,1.4,0,0,0,1.413-1.664l-.628-4.459,4.49-.157a1.4,1.4,0,0,0,1.413-1.664L437,485.617l4.49-.157A1.4,1.4,0,0,0,442.9,483.8l-.628-4.459,4.49-.157a1.4,1.4,0,0,0,1.413-1.664l-.628-4.459,4.9-.471a1.454,1.454,0,0,0,1.162-2.167L449.4,459.9l-1.13,8.415-4.333.157a1.519,1.519,0,0,0-1.539,1.821l.6,4.3-4.333.157a1.519,1.519,0,0,0-1.539,1.821l.6,4.3-4.333.157a1.519,1.519,0,0,0-1.539,1.821l.6,4.3-4.333.157a1.519,1.519,0,0,0-1.539,1.821l.6,4.3-4.333.157a1.519,1.519,0,0,0-1.539,1.821l.6,4.3-6.123.22-5.872,7,7.348,6.154Z" transform="translate(-366.945 -429.159)" fill="none" stroke="#474747" stroke-linecap="round" stroke-linejoin="round" stroke-miterlimit="10" stroke-width="1"/>
      <path id="XMLID_8_" d="M430.52,652.66H348.88a21.964,21.964,0,0,1-21.98-21.98h0a21.964,21.964,0,0,1,21.98-21.98h81.64a21.964,21.964,0,0,1,21.98,21.98h0A21.964,21.964,0,0,1,430.52,652.66Z" transform="translate(-310.007 -531.236)" fill="#9acf8d"/>
      <path id="XMLID_47_" d="M430.52,690.168H348.88A21.986,21.986,0,0,1,327.057,670.7a22.009,22.009,0,0,0-.157,2.512h0a21.964,21.964,0,0,0,21.98,21.98h81.64a21.964,21.964,0,0,0,21.98-21.98h0a22.023,22.023,0,0,0-.157-2.512A21.94,21.94,0,0,1,430.52,690.168Z" transform="translate(-310.007 -573.768)" fill="#85b578"/>
      <path id="XMLID_46_" d="M430.52,608.7H348.88a21.964,21.964,0,0,0-21.98,21.98h0a19.386,19.386,0,0,0,.126,2.355A22.01,22.01,0,0,1,348.88,613.41h81.64a22.01,22.01,0,0,1,21.854,19.625,19.72,19.72,0,0,0,.126-2.355h0A21.984,21.984,0,0,0,430.52,608.7Z" transform="translate(-310.007 -531.236)" fill="#bfe8b3"/>
      <path id="XMLID_1_" d="M430.52,652.66H348.88a21.964,21.964,0,0,1-21.98-21.98h0a21.964,21.964,0,0,1,21.98-21.98h81.64a21.964,21.964,0,0,1,21.98,21.98h0A21.964,21.964,0,0,1,430.52,652.66Z" transform="translate(-310.007 -531.236)" fill="none" stroke="#474747" stroke-linecap="round" stroke-linejoin="round" stroke-miterlimit="10" stroke-width="1"/>
      <line id="XMLID_14_" y1="2.669" x2="9.671" transform="translate(25.968 72.597)" fill="none" stroke="#474747" stroke-linecap="round" stroke-linejoin="round" stroke-miterlimit="10" stroke-width="3"/>
      <circle id="XMLID_21_" cx="7.913" cy="7.913" r="7.913" transform="translate(32.311 91.531)" fill="#d2dde1"/>
      <path id="XMLID_36_" d="M365.845,673a13.214,13.214,0,0,1-4.208-19.5" transform="translate(-332.027 -561.969)" fill="none" stroke="#474747" stroke-linecap="round" stroke-linejoin="round" stroke-miterlimit="10" stroke-width="6" opacity="0.2"/>
      <circle id="XMLID_19_" cx="7.913" cy="7.913" r="7.913" transform="translate(32.311 91.531)" fill="none" stroke="#474747" stroke-linecap="round" stroke-linejoin="round" stroke-miterlimit="10" stroke-width="1"/>
      <path id="XMLID_32_" d="M422.454,488.8s-4.8,12.152-6.154,18.84" transform="translate(-371.335 -448.985)" fill="none" stroke="#474747" stroke-linecap="round" stroke-linejoin="round" stroke-miterlimit="10" stroke-width="3"/>
      <line id="XMLID_27_" y2="10.079" transform="translate(40.223 94.42)" fill="none" stroke="#474747" stroke-linecap="round" stroke-linejoin="round" stroke-miterlimit="10" stroke-width="6"/>
      <line id="XMLID_24_" x1="10.079" transform="translate(35.168 99.444)" fill="none" stroke="#474747" stroke-linecap="round" stroke-linejoin="round" stroke-miterlimit="10" stroke-width="6"/>
      <line id="XMLID_30_" x2="3.171" y2="14.35" transform="translate(18.62 56.363)" fill="none" stroke="#474747" stroke-linecap="round" stroke-linejoin="round" stroke-miterlimit="10" stroke-width="3"/>
      <line id="XMLID_20_" x2="8.918" y2="40.318" transform="translate(8.509 10.645)" fill="none" stroke="#474747" stroke-linecap="round" stroke-linejoin="round" stroke-miterlimit="10" stroke-width="3"/>
    </g>
  </g>
</svg>
